<mxfile host="65bd71144e">
    <diagram id="QPxZH_eZeljZbpDSlpxb" name="Page-1">
        <mxGraphModel dx="2353" dy="1756" grid="1" gridSize="10" guides="1" tooltips="1" connect="1" arrows="1" fold="1" page="1" pageScale="1" pageWidth="827" pageHeight="1169" math="0" shadow="0">
            <root>
                <mxCell id="0"/>
                <mxCell id="1" parent="0"/>
                <mxCell id="26" value="" style="rounded=0;whiteSpace=wrap;html=1;fontFamily=Tahoma;fontSize=20;strokeColor=default;strokeWidth=3;dashed=1;fillColor=none;" vertex="1" parent="1">
                    <mxGeometry x="180" y="190" width="230" height="120" as="geometry"/>
                </mxCell>
                <mxCell id="33" style="edgeStyle=none;html=1;exitX=0;exitY=1;exitDx=0;exitDy=0;entryX=0;entryY=0;entryDx=0;entryDy=0;fontFamily=Tahoma;fontSize=20;strokeColor=default;strokeWidth=3;" edge="1" parent="1" source="32" target="29">
                    <mxGeometry relative="1" as="geometry"/>
                </mxCell>
                <mxCell id="34" style="edgeStyle=none;html=1;exitX=1;exitY=1;exitDx=0;exitDy=0;entryX=1;entryY=0;entryDx=0;entryDy=0;fontFamily=Tahoma;fontSize=20;strokeColor=default;strokeWidth=3;" edge="1" parent="1" source="32" target="29">
                    <mxGeometry relative="1" as="geometry"/>
                </mxCell>
                <mxCell id="32" value="" style="rounded=0;whiteSpace=wrap;html=1;fontFamily=Tahoma;fontSize=20;strokeColor=default;strokeWidth=3;dashed=1;fillColor=none;dashPattern=1 1;" vertex="1" parent="1">
                    <mxGeometry x="190" y="200" width="100" height="100" as="geometry"/>
                </mxCell>
                <mxCell id="29" value="" style="rounded=0;whiteSpace=wrap;html=1;fontFamily=Tahoma;fontSize=20;strokeColor=default;strokeWidth=3;dashed=1;fillColor=none;dashPattern=1 1;" vertex="1" parent="1">
                    <mxGeometry x="190" y="350" width="430" height="100" as="geometry"/>
                </mxCell>
                <mxCell id="27" style="edgeStyle=none;html=1;exitX=0;exitY=1;exitDx=0;exitDy=0;entryX=0;entryY=0;entryDx=0;entryDy=0;fontFamily=Tahoma;fontSize=20;strokeColor=default;strokeWidth=3;" edge="1" parent="1" source="25" target="26">
                    <mxGeometry relative="1" as="geometry"/>
                </mxCell>
                <mxCell id="28" style="edgeStyle=none;html=1;exitX=1;exitY=1;exitDx=0;exitDy=0;entryX=1;entryY=0;entryDx=0;entryDy=0;fontFamily=Tahoma;fontSize=20;strokeColor=default;strokeWidth=3;" edge="1" parent="1" source="25" target="26">
                    <mxGeometry relative="1" as="geometry"/>
                </mxCell>
                <mxCell id="25" value="" style="rounded=0;whiteSpace=wrap;html=1;fontFamily=Tahoma;fontSize=20;strokeColor=default;strokeWidth=3;dashed=1;fillColor=none;" vertex="1" parent="1">
                    <mxGeometry x="180" y="20" width="120" height="120" as="geometry"/>
                </mxCell>
                <mxCell id="5" style="edgeStyle=none;html=1;exitX=1;exitY=0.5;exitDx=0;exitDy=0;fontSize=25;strokeWidth=3;fontFamily=Tahoma;fillColor=#fad7ac;strokeColor=default;" edge="1" parent="1" source="2" target="3">
                    <mxGeometry relative="1" as="geometry"/>
                </mxCell>
                <mxCell id="2" value="&lt;font style=&quot;font-size: 20px;&quot;&gt;Loop0&lt;/font&gt;" style="rounded=0;whiteSpace=wrap;html=1;strokeWidth=3;fontSize=20;fontFamily=Tahoma;fillColor=#b0e3e6;strokeColor=default;" vertex="1" parent="1">
                    <mxGeometry x="200" y="360" width="80" height="80" as="geometry"/>
                </mxCell>
                <mxCell id="7" style="edgeStyle=none;html=1;fontFamily=Tahoma;fontSize=20;strokeWidth=3;fillColor=#fad7ac;strokeColor=default;" edge="1" parent="1" target="4">
                    <mxGeometry relative="1" as="geometry">
                        <mxPoint x="480" y="400" as="sourcePoint"/>
                    </mxGeometry>
                </mxCell>
                <mxCell id="8" style="edgeStyle=none;html=1;exitX=1;exitY=0.5;exitDx=0;exitDy=0;fontFamily=Tahoma;fontSize=20;strokeWidth=3;fillColor=#fad7ac;strokeColor=default;" edge="1" parent="1" source="3">
                    <mxGeometry relative="1" as="geometry">
                        <mxPoint x="440" y="400.28571428571433" as="targetPoint"/>
                    </mxGeometry>
                </mxCell>
                <mxCell id="3" value="&lt;font style=&quot;font-size: 20px;&quot;&gt;Loop1&lt;/font&gt;" style="rounded=0;whiteSpace=wrap;html=1;strokeWidth=3;fontSize=20;fontFamily=Tahoma;fillColor=#b0e3e6;strokeColor=default;" vertex="1" parent="1">
                    <mxGeometry x="320" y="360" width="80" height="80" as="geometry"/>
                </mxCell>
                <mxCell id="30" style="edgeStyle=none;html=1;exitX=1;exitY=0.5;exitDx=0;exitDy=0;fontFamily=Tahoma;fontSize=20;strokeColor=default;strokeWidth=3;" edge="1" parent="1" source="4">
                    <mxGeometry relative="1" as="geometry">
                        <mxPoint x="660" y="399.78787878787887" as="targetPoint"/>
                    </mxGeometry>
                </mxCell>
                <mxCell id="4" value="&lt;font style=&quot;font-size: 20px;&quot;&gt;Loop63&lt;/font&gt;" style="rounded=0;whiteSpace=wrap;html=1;strokeWidth=3;fontSize=20;fontFamily=Tahoma;fillColor=#b0e3e6;strokeColor=default;" vertex="1" parent="1">
                    <mxGeometry x="520" y="360" width="80" height="80" as="geometry"/>
                </mxCell>
                <mxCell id="9" value="" style="shape=waypoint;sketch=0;fillStyle=solid;size=6;pointerEvents=1;points=[];fillColor=#fad7ac;resizable=0;rotatable=0;perimeter=centerPerimeter;snapToPoint=1;fontFamily=Tahoma;fontSize=12;strokeWidth=1;strokeColor=default;" vertex="1" parent="1">
                    <mxGeometry x="440" y="360" width="40" height="40" as="geometry"/>
                </mxCell>
                <mxCell id="10" value="" style="shape=waypoint;sketch=0;fillStyle=solid;size=6;pointerEvents=1;points=[];fillColor=#fad7ac;resizable=0;rotatable=0;perimeter=centerPerimeter;snapToPoint=1;fontFamily=Tahoma;fontSize=12;strokeWidth=1;strokeColor=default;" vertex="1" parent="1">
                    <mxGeometry x="440" y="380" width="40" height="40" as="geometry"/>
                </mxCell>
                <mxCell id="11" value="" style="shape=waypoint;sketch=0;fillStyle=solid;size=6;pointerEvents=1;points=[];fillColor=#fad7ac;resizable=0;rotatable=0;perimeter=centerPerimeter;snapToPoint=1;fontFamily=Tahoma;fontSize=12;strokeWidth=1;strokeColor=default;" vertex="1" parent="1">
                    <mxGeometry x="440" y="400" width="40" height="40" as="geometry"/>
                </mxCell>
                <mxCell id="15" style="edgeStyle=none;html=1;exitX=1;exitY=0.5;exitDx=0;exitDy=0;entryX=0;entryY=0.5;entryDx=0;entryDy=0;fontFamily=Tahoma;fontSize=12;strokeWidth=3;" edge="1" parent="1" source="12" target="13">
                    <mxGeometry relative="1" as="geometry"/>
                </mxCell>
                <mxCell id="12" value="&lt;font style=&quot;font-size: 20px&quot;&gt;Chunk0&lt;/font&gt;" style="rounded=0;whiteSpace=wrap;html=1;strokeWidth=3;fontSize=20;fontFamily=Tahoma;fillColor=#fad9d5;strokeColor=default;" vertex="1" parent="1">
                    <mxGeometry x="200" y="210" width="80" height="80" as="geometry"/>
                </mxCell>
                <mxCell id="19" style="edgeStyle=none;html=1;exitX=1;exitY=0.5;exitDx=0;exitDy=0;fontFamily=Tahoma;fontSize=12;strokeWidth=3;" edge="1" parent="1" source="13" target="18">
                    <mxGeometry relative="1" as="geometry"/>
                </mxCell>
                <mxCell id="13" value="&lt;font style=&quot;font-size: 20px&quot;&gt;Chunk1&lt;/font&gt;" style="rounded=0;whiteSpace=wrap;html=1;strokeWidth=3;fontSize=20;fontFamily=Tahoma;fillColor=#fad9d5;strokeColor=default;" vertex="1" parent="1">
                    <mxGeometry x="320" y="210" width="80" height="80" as="geometry"/>
                </mxCell>
                <mxCell id="17" style="edgeStyle=none;html=1;exitX=1;exitY=0.5;exitDx=0;exitDy=0;entryX=0;entryY=0.5;entryDx=0;entryDy=0;fontFamily=Tahoma;fontSize=12;strokeWidth=3;" edge="1" parent="1" source="14" target="16">
                    <mxGeometry relative="1" as="geometry"/>
                </mxCell>
                <mxCell id="14" value="&lt;font style=&quot;font-size: 20px&quot;&gt;sha256&lt;br&gt;(640-bit)&lt;br&gt;&lt;/font&gt;" style="rounded=0;whiteSpace=wrap;html=1;strokeWidth=3;fontSize=20;fontFamily=Tahoma;fillColor=#fad7ac;strokeColor=default;" vertex="1" parent="1">
                    <mxGeometry x="200" y="40" width="80" height="80" as="geometry"/>
                </mxCell>
                <mxCell id="23" style="edgeStyle=none;html=1;exitX=1;exitY=0.5;exitDx=0;exitDy=0;fontFamily=Tahoma;fontSize=20;strokeColor=default;strokeWidth=3;" edge="1" parent="1" source="16">
                    <mxGeometry relative="1" as="geometry">
                        <mxPoint x="655.1851851851852" y="80" as="targetPoint"/>
                    </mxGeometry>
                </mxCell>
                <mxCell id="16" value="&lt;font style=&quot;font-size: 20px&quot;&gt;sha256&lt;br&gt;(256-bit)&lt;br&gt;&lt;/font&gt;" style="rounded=0;whiteSpace=wrap;html=1;strokeWidth=3;fontSize=20;fontFamily=Tahoma;fillColor=#fad7ac;strokeColor=default;" vertex="1" parent="1">
                    <mxGeometry x="320" y="40" width="80" height="80" as="geometry"/>
                </mxCell>
                <mxCell id="18" value="&lt;font style=&quot;font-size: 20px&quot;&gt;Chunk0&lt;/font&gt;" style="rounded=0;whiteSpace=wrap;html=1;strokeWidth=3;fontSize=20;fontFamily=Tahoma;fillColor=#fad9d5;strokeColor=default;" vertex="1" parent="1">
                    <mxGeometry x="440" y="210" width="80" height="80" as="geometry"/>
                </mxCell>
                <mxCell id="20" style="edgeStyle=none;html=1;entryX=0;entryY=0.5;entryDx=0;entryDy=0;fontFamily=Tahoma;fontSize=12;strokeWidth=3;" edge="1" parent="1" target="14">
                    <mxGeometry relative="1" as="geometry">
                        <mxPoint x="30" y="80" as="sourcePoint"/>
                        <mxPoint x="330" y="90" as="targetPoint"/>
                    </mxGeometry>
                </mxCell>
                <mxCell id="21" value="&lt;font style=&quot;font-size: 20px&quot;&gt;Block Header&lt;/font&gt;" style="text;html=1;strokeColor=none;fillColor=none;align=center;verticalAlign=middle;whiteSpace=wrap;rounded=0;fontFamily=Tahoma;fontSize=12;" vertex="1" parent="1">
                    <mxGeometry x="40" y="40" width="120" height="40" as="geometry"/>
                </mxCell>
                <mxCell id="22" value="&lt;font style=&quot;font-size: 20px&quot;&gt;80-byte&lt;/font&gt;" style="text;html=1;strokeColor=none;fillColor=none;align=center;verticalAlign=middle;whiteSpace=wrap;rounded=0;fontFamily=Tahoma;fontSize=12;" vertex="1" parent="1">
                    <mxGeometry x="40" y="80" width="120" height="40" as="geometry"/>
                </mxCell>
                <mxCell id="24" value="&lt;font style=&quot;font-size: 20px&quot;&gt;Output Hash Value&lt;/font&gt;" style="text;html=1;strokeColor=none;fillColor=none;align=center;verticalAlign=middle;whiteSpace=wrap;rounded=0;fontFamily=Tahoma;fontSize=12;" vertex="1" parent="1">
                    <mxGeometry x="440" y="40" width="200" height="40" as="geometry"/>
                </mxCell>
                <mxCell id="35" value="&lt;font style=&quot;font-size: 20px&quot;&gt;To Next Chunk&lt;/font&gt;" style="text;html=1;strokeColor=none;fillColor=none;align=center;verticalAlign=middle;whiteSpace=wrap;rounded=0;fontFamily=Tahoma;fontSize=12;" vertex="1" parent="1">
                    <mxGeometry x="640" y="360" width="120" height="40" as="geometry"/>
                </mxCell>
                <mxCell id="37" value="&lt;font style=&quot;font-size: 20px&quot;&gt;Compression loops are fully unrolled.&lt;/font&gt;" style="text;html=1;strokeColor=none;fillColor=none;align=left;verticalAlign=middle;whiteSpace=wrap;rounded=0;fontFamily=Tahoma;fontSize=12;" vertex="1" parent="1">
                    <mxGeometry x="190" y="450" width="360" height="40" as="geometry"/>
                </mxCell>
                <mxCell id="41" value="" style="endArrow=none;html=1;fontFamily=Tahoma;fontSize=20;strokeColor=default;strokeWidth=3;" edge="1" parent="1">
                    <mxGeometry width="50" height="50" relative="1" as="geometry">
                        <mxPoint x="880" y="130" as="sourcePoint"/>
                        <mxPoint x="880" y="90" as="targetPoint"/>
                    </mxGeometry>
                </mxCell>
                <mxCell id="42" value="" style="endArrow=none;html=1;fontFamily=Tahoma;fontSize=20;strokeColor=default;strokeWidth=3;" edge="1" parent="1">
                    <mxGeometry width="50" height="50" relative="1" as="geometry">
                        <mxPoint x="920" y="130" as="sourcePoint"/>
                        <mxPoint x="920" y="90" as="targetPoint"/>
                    </mxGeometry>
                </mxCell>
                <mxCell id="45" value="" style="endArrow=none;html=1;fontFamily=Tahoma;fontSize=20;strokeColor=default;strokeWidth=3;" edge="1" parent="1">
                    <mxGeometry width="50" height="50" relative="1" as="geometry">
                        <mxPoint x="960" y="130" as="sourcePoint"/>
                        <mxPoint x="960" y="90" as="targetPoint"/>
                    </mxGeometry>
                </mxCell>
                <mxCell id="46" value="" style="endArrow=none;html=1;fontFamily=Tahoma;fontSize=20;strokeColor=default;strokeWidth=3;" edge="1" parent="1">
                    <mxGeometry width="50" height="50" relative="1" as="geometry">
                        <mxPoint x="1000" y="130" as="sourcePoint"/>
                        <mxPoint x="1000" y="90" as="targetPoint"/>
                    </mxGeometry>
                </mxCell>
                <mxCell id="48" value="" style="endArrow=none;html=1;fontFamily=Tahoma;fontSize=20;strokeColor=default;strokeWidth=3;" edge="1" parent="1">
                    <mxGeometry width="50" height="50" relative="1" as="geometry">
                        <mxPoint x="1040" y="130" as="sourcePoint"/>
                        <mxPoint x="1040" y="90" as="targetPoint"/>
                    </mxGeometry>
                </mxCell>
                <mxCell id="49" value="" style="endArrow=none;html=1;fontFamily=Tahoma;fontSize=20;strokeColor=default;strokeWidth=3;" edge="1" parent="1">
                    <mxGeometry width="50" height="50" relative="1" as="geometry">
                        <mxPoint x="1080" y="130" as="sourcePoint"/>
                        <mxPoint x="1080" y="90" as="targetPoint"/>
                    </mxGeometry>
                </mxCell>
                <mxCell id="50" value="" style="endArrow=none;html=1;fontFamily=Tahoma;fontSize=20;strokeColor=default;strokeWidth=3;" edge="1" parent="1">
                    <mxGeometry width="50" height="50" relative="1" as="geometry">
                        <mxPoint x="1120" y="130" as="sourcePoint"/>
                        <mxPoint x="1120" y="90" as="targetPoint"/>
                    </mxGeometry>
                </mxCell>
                <mxCell id="51" value="" style="endArrow=none;html=1;fontFamily=Tahoma;fontSize=20;strokeColor=default;strokeWidth=3;" edge="1" parent="1">
                    <mxGeometry width="50" height="50" relative="1" as="geometry">
                        <mxPoint x="1160" y="130" as="sourcePoint"/>
                        <mxPoint x="1160" y="90" as="targetPoint"/>
                    </mxGeometry>
                </mxCell>
                <mxCell id="52" value="" style="endArrow=none;html=1;fontFamily=Tahoma;fontSize=20;strokeColor=default;strokeWidth=3;" edge="1" parent="1">
                    <mxGeometry width="50" height="50" relative="1" as="geometry">
                        <mxPoint x="840" y="130" as="sourcePoint"/>
                        <mxPoint x="880" y="130" as="targetPoint"/>
                    </mxGeometry>
                </mxCell>
                <mxCell id="53" value="" style="endArrow=none;html=1;fontFamily=Tahoma;fontSize=20;strokeColor=default;strokeWidth=3;" edge="1" parent="1">
                    <mxGeometry width="50" height="50" relative="1" as="geometry">
                        <mxPoint x="880" y="90" as="sourcePoint"/>
                        <mxPoint x="920" y="90" as="targetPoint"/>
                    </mxGeometry>
                </mxCell>
                <mxCell id="54" value="" style="endArrow=none;html=1;fontFamily=Tahoma;fontSize=20;strokeColor=default;strokeWidth=3;" edge="1" parent="1">
                    <mxGeometry width="50" height="50" relative="1" as="geometry">
                        <mxPoint x="920" y="130" as="sourcePoint"/>
                        <mxPoint x="960" y="130" as="targetPoint"/>
                    </mxGeometry>
                </mxCell>
                <mxCell id="55" value="" style="endArrow=none;html=1;fontFamily=Tahoma;fontSize=20;strokeColor=default;strokeWidth=3;" edge="1" parent="1">
                    <mxGeometry width="50" height="50" relative="1" as="geometry">
                        <mxPoint x="960" y="90" as="sourcePoint"/>
                        <mxPoint x="1000" y="90" as="targetPoint"/>
                    </mxGeometry>
                </mxCell>
                <mxCell id="56" value="" style="endArrow=none;html=1;fontFamily=Tahoma;fontSize=20;strokeColor=default;strokeWidth=3;" edge="1" parent="1">
                    <mxGeometry width="50" height="50" relative="1" as="geometry">
                        <mxPoint x="1000" y="130" as="sourcePoint"/>
                        <mxPoint x="1040" y="130" as="targetPoint"/>
                    </mxGeometry>
                </mxCell>
                <mxCell id="57" value="" style="endArrow=none;html=1;fontFamily=Tahoma;fontSize=20;strokeColor=default;strokeWidth=3;" edge="1" parent="1">
                    <mxGeometry width="50" height="50" relative="1" as="geometry">
                        <mxPoint x="1040" y="90" as="sourcePoint"/>
                        <mxPoint x="1080" y="90" as="targetPoint"/>
                    </mxGeometry>
                </mxCell>
                <mxCell id="58" value="" style="endArrow=none;html=1;fontFamily=Tahoma;fontSize=20;strokeColor=default;strokeWidth=3;" edge="1" parent="1">
                    <mxGeometry width="50" height="50" relative="1" as="geometry">
                        <mxPoint x="1080" y="130" as="sourcePoint"/>
                        <mxPoint x="1120" y="130" as="targetPoint"/>
                    </mxGeometry>
                </mxCell>
                <mxCell id="59" value="" style="endArrow=none;html=1;fontFamily=Tahoma;fontSize=20;strokeColor=default;strokeWidth=3;" edge="1" parent="1">
                    <mxGeometry width="50" height="50" relative="1" as="geometry">
                        <mxPoint x="1120" y="90" as="sourcePoint"/>
                        <mxPoint x="1160" y="90" as="targetPoint"/>
                    </mxGeometry>
                </mxCell>
                <mxCell id="60" value="" style="endArrow=none;html=1;fontFamily=Tahoma;fontSize=20;strokeColor=default;strokeWidth=3;" edge="1" parent="1">
                    <mxGeometry width="50" height="50" relative="1" as="geometry">
                        <mxPoint x="1160" y="130" as="sourcePoint"/>
                        <mxPoint x="1200" y="130" as="targetPoint"/>
                    </mxGeometry>
                </mxCell>
                <mxCell id="63" value="" style="endArrow=none;html=1;fontFamily=Tahoma;fontSize=20;strokeColor=default;strokeWidth=3;" edge="1" parent="1">
                    <mxGeometry width="50" height="50" relative="1" as="geometry">
                        <mxPoint x="890" y="170" as="sourcePoint"/>
                        <mxPoint x="950" y="170" as="targetPoint"/>
                    </mxGeometry>
                </mxCell>
                <mxCell id="64" value="" style="endArrow=none;html=1;fontFamily=Tahoma;fontSize=20;strokeColor=default;strokeWidth=3;" edge="1" parent="1">
                    <mxGeometry width="50" height="50" relative="1" as="geometry">
                        <mxPoint x="890" y="210" as="sourcePoint"/>
                        <mxPoint x="950" y="210" as="targetPoint"/>
                    </mxGeometry>
                </mxCell>
                <mxCell id="65" value="" style="endArrow=none;html=1;fontFamily=Tahoma;fontSize=20;strokeColor=default;strokeWidth=3;" edge="1" parent="1">
                    <mxGeometry width="50" height="50" relative="1" as="geometry">
                        <mxPoint x="950" y="170" as="sourcePoint"/>
                        <mxPoint x="970" y="210" as="targetPoint"/>
                    </mxGeometry>
                </mxCell>
                <mxCell id="66" value="" style="endArrow=none;html=1;fontFamily=Tahoma;fontSize=20;strokeColor=default;strokeWidth=3;" edge="1" parent="1">
                    <mxGeometry width="50" height="50" relative="1" as="geometry">
                        <mxPoint x="970" y="170" as="sourcePoint"/>
                        <mxPoint x="950" y="210" as="targetPoint"/>
                    </mxGeometry>
                </mxCell>
                <mxCell id="67" value="" style="endArrow=none;html=1;fontFamily=Tahoma;fontSize=20;strokeColor=default;strokeWidth=3;" edge="1" parent="1">
                    <mxGeometry width="50" height="50" relative="1" as="geometry">
                        <mxPoint x="970" y="170" as="sourcePoint"/>
                        <mxPoint x="1030" y="170" as="targetPoint"/>
                    </mxGeometry>
                </mxCell>
                <mxCell id="68" value="" style="endArrow=none;html=1;fontFamily=Tahoma;fontSize=20;strokeColor=default;strokeWidth=3;" edge="1" parent="1">
                    <mxGeometry width="50" height="50" relative="1" as="geometry">
                        <mxPoint x="970" y="210" as="sourcePoint"/>
                        <mxPoint x="1030" y="210" as="targetPoint"/>
                    </mxGeometry>
                </mxCell>
                <mxCell id="69" value="" style="endArrow=none;html=1;fontFamily=Tahoma;fontSize=20;strokeColor=default;strokeWidth=3;" edge="1" parent="1">
                    <mxGeometry width="50" height="50" relative="1" as="geometry">
                        <mxPoint x="1030" y="170" as="sourcePoint"/>
                        <mxPoint x="1050" y="210" as="targetPoint"/>
                    </mxGeometry>
                </mxCell>
                <mxCell id="70" value="" style="endArrow=none;html=1;fontFamily=Tahoma;fontSize=20;strokeColor=default;strokeWidth=3;" edge="1" parent="1">
                    <mxGeometry width="50" height="50" relative="1" as="geometry">
                        <mxPoint x="1050" y="170" as="sourcePoint"/>
                        <mxPoint x="1030" y="210" as="targetPoint"/>
                    </mxGeometry>
                </mxCell>
                <mxCell id="71" value="" style="endArrow=none;html=1;fontFamily=Tahoma;fontSize=20;strokeColor=default;strokeWidth=3;" edge="1" parent="1">
                    <mxGeometry width="50" height="50" relative="1" as="geometry">
                        <mxPoint x="1050" y="170" as="sourcePoint"/>
                        <mxPoint x="1110" y="170" as="targetPoint"/>
                    </mxGeometry>
                </mxCell>
                <mxCell id="72" value="" style="endArrow=none;html=1;fontFamily=Tahoma;fontSize=20;strokeColor=default;strokeWidth=3;" edge="1" parent="1">
                    <mxGeometry width="50" height="50" relative="1" as="geometry">
                        <mxPoint x="1050" y="210" as="sourcePoint"/>
                        <mxPoint x="1110" y="210" as="targetPoint"/>
                    </mxGeometry>
                </mxCell>
                <mxCell id="73" value="" style="endArrow=none;html=1;fontFamily=Tahoma;fontSize=20;strokeColor=default;strokeWidth=3;" edge="1" parent="1">
                    <mxGeometry width="50" height="50" relative="1" as="geometry">
                        <mxPoint x="870" y="170" as="sourcePoint"/>
                        <mxPoint x="890" y="210" as="targetPoint"/>
                    </mxGeometry>
                </mxCell>
                <mxCell id="74" value="" style="endArrow=none;html=1;fontFamily=Tahoma;fontSize=20;strokeColor=default;strokeWidth=3;" edge="1" parent="1">
                    <mxGeometry width="50" height="50" relative="1" as="geometry">
                        <mxPoint x="890" y="170" as="sourcePoint"/>
                        <mxPoint x="870" y="210" as="targetPoint"/>
                    </mxGeometry>
                </mxCell>
                <mxCell id="75" value="" style="endArrow=none;html=1;fontFamily=Tahoma;fontSize=20;strokeColor=default;strokeWidth=3;" edge="1" parent="1">
                    <mxGeometry width="50" height="50" relative="1" as="geometry">
                        <mxPoint x="840" y="170" as="sourcePoint"/>
                        <mxPoint x="870" y="169.9999999999999" as="targetPoint"/>
                    </mxGeometry>
                </mxCell>
                <mxCell id="76" value="" style="endArrow=none;html=1;fontFamily=Tahoma;fontSize=20;strokeColor=default;strokeWidth=3;" edge="1" parent="1">
                    <mxGeometry width="50" height="50" relative="1" as="geometry">
                        <mxPoint x="840" y="210" as="sourcePoint"/>
                        <mxPoint x="870" y="209.9999999999999" as="targetPoint"/>
                    </mxGeometry>
                </mxCell>
                <mxCell id="79" value="I0" style="text;html=1;strokeColor=none;fillColor=none;align=center;verticalAlign=middle;whiteSpace=wrap;rounded=0;dashed=1;dashPattern=1 1;sketch=1;fillStyle=auto;fontFamily=Tahoma;fontSize=20;" vertex="1" parent="1">
                    <mxGeometry x="880" y="170" width="80" height="40" as="geometry"/>
                </mxCell>
                <mxCell id="80" value="I1" style="text;html=1;strokeColor=none;fillColor=none;align=center;verticalAlign=middle;whiteSpace=wrap;rounded=0;dashed=1;dashPattern=1 1;sketch=1;fillStyle=auto;fontFamily=Tahoma;fontSize=20;" vertex="1" parent="1">
                    <mxGeometry x="960" y="170" width="80" height="40" as="geometry"/>
                </mxCell>
                <mxCell id="81" value="" style="endArrow=none;html=1;fontFamily=Tahoma;fontSize=20;strokeColor=default;strokeWidth=3;" edge="1" parent="1">
                    <mxGeometry width="50" height="50" relative="1" as="geometry">
                        <mxPoint x="840" y="290" as="sourcePoint"/>
                        <mxPoint x="880" y="290" as="targetPoint"/>
                    </mxGeometry>
                </mxCell>
                <mxCell id="82" value="" style="endArrow=none;html=1;fontFamily=Tahoma;fontSize=20;strokeColor=default;strokeWidth=3;" edge="1" parent="1">
                    <mxGeometry width="50" height="50" relative="1" as="geometry">
                        <mxPoint x="880" y="290" as="sourcePoint"/>
                        <mxPoint x="880" y="250" as="targetPoint"/>
                    </mxGeometry>
                </mxCell>
                <mxCell id="83" value="" style="endArrow=none;html=1;fontFamily=Tahoma;fontSize=20;strokeColor=default;strokeWidth=3;" edge="1" parent="1">
                    <mxGeometry width="50" height="50" relative="1" as="geometry">
                        <mxPoint x="880" y="250" as="sourcePoint"/>
                        <mxPoint x="1040" y="250" as="targetPoint"/>
                    </mxGeometry>
                </mxCell>
                <mxCell id="85" value="I2" style="text;html=1;strokeColor=none;fillColor=none;align=center;verticalAlign=middle;whiteSpace=wrap;rounded=0;dashed=1;dashPattern=1 1;sketch=1;fillStyle=auto;fontFamily=Tahoma;fontSize=20;" vertex="1" parent="1">
                    <mxGeometry x="1120" y="170" width="80" height="40" as="geometry"/>
                </mxCell>
                <mxCell id="86" value="" style="endArrow=none;html=1;fontFamily=Tahoma;fontSize=20;strokeColor=default;strokeWidth=3;" edge="1" parent="1">
                    <mxGeometry width="50" height="50" relative="1" as="geometry">
                        <mxPoint x="1110" y="170" as="sourcePoint"/>
                        <mxPoint x="1130" y="210" as="targetPoint"/>
                    </mxGeometry>
                </mxCell>
                <mxCell id="87" value="" style="endArrow=none;html=1;fontFamily=Tahoma;fontSize=20;strokeColor=default;strokeWidth=3;" edge="1" parent="1">
                    <mxGeometry width="50" height="50" relative="1" as="geometry">
                        <mxPoint x="1130" y="170" as="sourcePoint"/>
                        <mxPoint x="1110" y="210" as="targetPoint"/>
                    </mxGeometry>
                </mxCell>
                <mxCell id="88" value="" style="endArrow=none;html=1;fontFamily=Tahoma;fontSize=20;strokeColor=default;strokeWidth=3;" edge="1" parent="1">
                    <mxGeometry width="50" height="50" relative="1" as="geometry">
                        <mxPoint x="1130" y="170" as="sourcePoint"/>
                        <mxPoint x="1190" y="170" as="targetPoint"/>
                    </mxGeometry>
                </mxCell>
                <mxCell id="89" value="" style="endArrow=none;html=1;fontFamily=Tahoma;fontSize=20;strokeColor=default;strokeWidth=3;" edge="1" parent="1">
                    <mxGeometry width="50" height="50" relative="1" as="geometry">
                        <mxPoint x="1130" y="210" as="sourcePoint"/>
                        <mxPoint x="1190" y="210" as="targetPoint"/>
                    </mxGeometry>
                </mxCell>
                <mxCell id="90" value="" style="endArrow=none;html=1;fontFamily=Tahoma;fontSize=20;strokeColor=default;strokeWidth=3;" edge="1" parent="1">
                    <mxGeometry width="50" height="50" relative="1" as="geometry">
                        <mxPoint x="1039.17" y="290" as="sourcePoint"/>
                        <mxPoint x="1039.17" y="250" as="targetPoint"/>
                    </mxGeometry>
                </mxCell>
                <mxCell id="91" value="" style="endArrow=none;html=1;fontFamily=Tahoma;fontSize=20;strokeColor=default;strokeWidth=3;" edge="1" parent="1">
                    <mxGeometry width="50" height="50" relative="1" as="geometry">
                        <mxPoint x="1040" y="290" as="sourcePoint"/>
                        <mxPoint x="1120" y="290" as="targetPoint"/>
                    </mxGeometry>
                </mxCell>
                <mxCell id="92" value="" style="endArrow=none;html=1;fontFamily=Tahoma;fontSize=20;strokeColor=default;strokeWidth=3;" edge="1" parent="1">
                    <mxGeometry width="50" height="50" relative="1" as="geometry">
                        <mxPoint x="1120" y="290" as="sourcePoint"/>
                        <mxPoint x="1120" y="250" as="targetPoint"/>
                    </mxGeometry>
                </mxCell>
                <mxCell id="93" value="" style="endArrow=none;html=1;fontFamily=Tahoma;fontSize=20;strokeColor=default;strokeWidth=3;" edge="1" parent="1">
                    <mxGeometry width="50" height="50" relative="1" as="geometry">
                        <mxPoint x="1120" y="250" as="sourcePoint"/>
                        <mxPoint x="1200" y="250" as="targetPoint"/>
                    </mxGeometry>
                </mxCell>
                <mxCell id="94" value="" style="rounded=0;whiteSpace=wrap;html=1;strokeWidth=2;fillWeight=4;hachureGap=8;hachureAngle=45;fillColor=#000000;sketch=1;dashed=1;dashPattern=1 1;fillStyle=auto;fontFamily=Tahoma;fontSize=20;strokeColor=none;" vertex="1" parent="1">
                    <mxGeometry x="1050" y="170" width="60" height="40" as="geometry"/>
                </mxCell>
                <mxCell id="95" value="&lt;font style=&quot;font-size: 20px&quot;&gt;clk&lt;/font&gt;" style="text;html=1;strokeColor=none;fillColor=none;align=left;verticalAlign=middle;whiteSpace=wrap;rounded=0;fontFamily=Tahoma;fontSize=12;" vertex="1" parent="1">
                    <mxGeometry x="760" y="90" width="80" height="40" as="geometry"/>
                </mxCell>
                <mxCell id="96" value="&lt;font style=&quot;font-size: 20px&quot;&gt;in_data&lt;/font&gt;" style="text;html=1;strokeColor=none;fillColor=none;align=left;verticalAlign=middle;whiteSpace=wrap;rounded=0;fontFamily=Tahoma;fontSize=12;" vertex="1" parent="1">
                    <mxGeometry x="760" y="170" width="80" height="40" as="geometry"/>
                </mxCell>
                <mxCell id="97" value="&lt;font style=&quot;font-size: 20px&quot;&gt;in_vld&lt;/font&gt;" style="text;html=1;strokeColor=none;fillColor=none;align=left;verticalAlign=middle;whiteSpace=wrap;rounded=0;fontFamily=Tahoma;fontSize=12;" vertex="1" parent="1">
                    <mxGeometry x="760" y="250" width="80" height="40" as="geometry"/>
                </mxCell>
                <mxCell id="98" value="" style="endArrow=none;html=1;fontFamily=Tahoma;fontSize=20;strokeColor=default;strokeWidth=3;" edge="1" parent="1">
                    <mxGeometry width="50" height="50" relative="1" as="geometry">
                        <mxPoint x="1280" y="129.16999999999996" as="sourcePoint"/>
                        <mxPoint x="1280" y="89.16999999999996" as="targetPoint"/>
                    </mxGeometry>
                </mxCell>
                <mxCell id="99" value="" style="endArrow=none;html=1;fontFamily=Tahoma;fontSize=20;strokeColor=default;strokeWidth=3;" edge="1" parent="1">
                    <mxGeometry width="50" height="50" relative="1" as="geometry">
                        <mxPoint x="1320" y="129.16999999999996" as="sourcePoint"/>
                        <mxPoint x="1320" y="89.16999999999996" as="targetPoint"/>
                    </mxGeometry>
                </mxCell>
                <mxCell id="100" value="" style="endArrow=none;html=1;fontFamily=Tahoma;fontSize=20;strokeColor=default;strokeWidth=3;" edge="1" parent="1">
                    <mxGeometry width="50" height="50" relative="1" as="geometry">
                        <mxPoint x="1360" y="129.16999999999996" as="sourcePoint"/>
                        <mxPoint x="1360" y="89.16999999999996" as="targetPoint"/>
                    </mxGeometry>
                </mxCell>
                <mxCell id="101" value="" style="endArrow=none;html=1;fontFamily=Tahoma;fontSize=20;strokeColor=default;strokeWidth=3;" edge="1" parent="1">
                    <mxGeometry width="50" height="50" relative="1" as="geometry">
                        <mxPoint x="1400" y="129.16999999999996" as="sourcePoint"/>
                        <mxPoint x="1400" y="89.16999999999996" as="targetPoint"/>
                    </mxGeometry>
                </mxCell>
                <mxCell id="102" value="" style="endArrow=none;html=1;fontFamily=Tahoma;fontSize=20;strokeColor=default;strokeWidth=3;" edge="1" parent="1">
                    <mxGeometry width="50" height="50" relative="1" as="geometry">
                        <mxPoint x="1440" y="129.16999999999996" as="sourcePoint"/>
                        <mxPoint x="1440" y="89.16999999999996" as="targetPoint"/>
                    </mxGeometry>
                </mxCell>
                <mxCell id="103" value="" style="endArrow=none;html=1;fontFamily=Tahoma;fontSize=20;strokeColor=default;strokeWidth=3;" edge="1" parent="1">
                    <mxGeometry width="50" height="50" relative="1" as="geometry">
                        <mxPoint x="1480" y="129.16999999999996" as="sourcePoint"/>
                        <mxPoint x="1480" y="89.16999999999996" as="targetPoint"/>
                    </mxGeometry>
                </mxCell>
                <mxCell id="104" value="" style="endArrow=none;html=1;fontFamily=Tahoma;fontSize=20;strokeColor=default;strokeWidth=3;" edge="1" parent="1">
                    <mxGeometry width="50" height="50" relative="1" as="geometry">
                        <mxPoint x="1520" y="129.16999999999996" as="sourcePoint"/>
                        <mxPoint x="1520" y="89.16999999999996" as="targetPoint"/>
                    </mxGeometry>
                </mxCell>
                <mxCell id="105" value="" style="endArrow=none;html=1;fontFamily=Tahoma;fontSize=20;strokeColor=default;strokeWidth=3;" edge="1" parent="1">
                    <mxGeometry width="50" height="50" relative="1" as="geometry">
                        <mxPoint x="1560" y="129.16999999999996" as="sourcePoint"/>
                        <mxPoint x="1560" y="89.16999999999996" as="targetPoint"/>
                    </mxGeometry>
                </mxCell>
                <mxCell id="106" value="" style="endArrow=none;html=1;fontFamily=Tahoma;fontSize=20;strokeColor=default;strokeWidth=3;" edge="1" parent="1">
                    <mxGeometry width="50" height="50" relative="1" as="geometry">
                        <mxPoint x="1240" y="129.16999999999996" as="sourcePoint"/>
                        <mxPoint x="1280" y="129.16999999999996" as="targetPoint"/>
                    </mxGeometry>
                </mxCell>
                <mxCell id="107" value="" style="endArrow=none;html=1;fontFamily=Tahoma;fontSize=20;strokeColor=default;strokeWidth=3;" edge="1" parent="1">
                    <mxGeometry width="50" height="50" relative="1" as="geometry">
                        <mxPoint x="1280" y="89.16999999999996" as="sourcePoint"/>
                        <mxPoint x="1320" y="89.16999999999996" as="targetPoint"/>
                    </mxGeometry>
                </mxCell>
                <mxCell id="108" value="" style="endArrow=none;html=1;fontFamily=Tahoma;fontSize=20;strokeColor=default;strokeWidth=3;" edge="1" parent="1">
                    <mxGeometry width="50" height="50" relative="1" as="geometry">
                        <mxPoint x="1320" y="129.16999999999996" as="sourcePoint"/>
                        <mxPoint x="1360" y="129.16999999999996" as="targetPoint"/>
                    </mxGeometry>
                </mxCell>
                <mxCell id="109" value="" style="endArrow=none;html=1;fontFamily=Tahoma;fontSize=20;strokeColor=default;strokeWidth=3;" edge="1" parent="1">
                    <mxGeometry width="50" height="50" relative="1" as="geometry">
                        <mxPoint x="1360" y="89.16999999999996" as="sourcePoint"/>
                        <mxPoint x="1400" y="89.16999999999996" as="targetPoint"/>
                    </mxGeometry>
                </mxCell>
                <mxCell id="110" value="" style="endArrow=none;html=1;fontFamily=Tahoma;fontSize=20;strokeColor=default;strokeWidth=3;" edge="1" parent="1">
                    <mxGeometry width="50" height="50" relative="1" as="geometry">
                        <mxPoint x="1400" y="129.16999999999996" as="sourcePoint"/>
                        <mxPoint x="1440" y="129.16999999999996" as="targetPoint"/>
                    </mxGeometry>
                </mxCell>
                <mxCell id="111" value="" style="endArrow=none;html=1;fontFamily=Tahoma;fontSize=20;strokeColor=default;strokeWidth=3;" edge="1" parent="1">
                    <mxGeometry width="50" height="50" relative="1" as="geometry">
                        <mxPoint x="1440" y="89.16999999999996" as="sourcePoint"/>
                        <mxPoint x="1480" y="89.16999999999996" as="targetPoint"/>
                    </mxGeometry>
                </mxCell>
                <mxCell id="112" value="" style="endArrow=none;html=1;fontFamily=Tahoma;fontSize=20;strokeColor=default;strokeWidth=3;" edge="1" parent="1">
                    <mxGeometry width="50" height="50" relative="1" as="geometry">
                        <mxPoint x="1480" y="129.16999999999996" as="sourcePoint"/>
                        <mxPoint x="1520" y="129.16999999999996" as="targetPoint"/>
                    </mxGeometry>
                </mxCell>
                <mxCell id="113" value="" style="endArrow=none;html=1;fontFamily=Tahoma;fontSize=20;strokeColor=default;strokeWidth=3;" edge="1" parent="1">
                    <mxGeometry width="50" height="50" relative="1" as="geometry">
                        <mxPoint x="1520" y="89.16999999999996" as="sourcePoint"/>
                        <mxPoint x="1560" y="89.16999999999996" as="targetPoint"/>
                    </mxGeometry>
                </mxCell>
                <mxCell id="114" value="" style="endArrow=none;html=1;fontFamily=Tahoma;fontSize=20;strokeColor=default;strokeWidth=3;" edge="1" parent="1">
                    <mxGeometry width="50" height="50" relative="1" as="geometry">
                        <mxPoint x="1560" y="129.16999999999996" as="sourcePoint"/>
                        <mxPoint x="1600" y="129.16999999999996" as="targetPoint"/>
                    </mxGeometry>
                </mxCell>
                <mxCell id="115" value="" style="endArrow=none;html=1;fontFamily=Tahoma;fontSize=20;strokeColor=default;strokeWidth=3;" edge="1" parent="1">
                    <mxGeometry width="50" height="50" relative="1" as="geometry">
                        <mxPoint x="1290" y="329.9999999999998" as="sourcePoint"/>
                        <mxPoint x="1350" y="329.9999999999998" as="targetPoint"/>
                    </mxGeometry>
                </mxCell>
                <mxCell id="116" value="" style="endArrow=none;html=1;fontFamily=Tahoma;fontSize=20;strokeColor=default;strokeWidth=3;" edge="1" parent="1">
                    <mxGeometry width="50" height="50" relative="1" as="geometry">
                        <mxPoint x="1290" y="369.9999999999998" as="sourcePoint"/>
                        <mxPoint x="1350" y="369.9999999999998" as="targetPoint"/>
                    </mxGeometry>
                </mxCell>
                <mxCell id="117" value="" style="endArrow=none;html=1;fontFamily=Tahoma;fontSize=20;strokeColor=default;strokeWidth=3;" edge="1" parent="1">
                    <mxGeometry width="50" height="50" relative="1" as="geometry">
                        <mxPoint x="1350" y="329.9999999999998" as="sourcePoint"/>
                        <mxPoint x="1370" y="369.9999999999998" as="targetPoint"/>
                    </mxGeometry>
                </mxCell>
                <mxCell id="118" value="" style="endArrow=none;html=1;fontFamily=Tahoma;fontSize=20;strokeColor=default;strokeWidth=3;" edge="1" parent="1">
                    <mxGeometry width="50" height="50" relative="1" as="geometry">
                        <mxPoint x="1370" y="329.9999999999998" as="sourcePoint"/>
                        <mxPoint x="1350" y="369.9999999999998" as="targetPoint"/>
                    </mxGeometry>
                </mxCell>
                <mxCell id="119" value="" style="endArrow=none;html=1;fontFamily=Tahoma;fontSize=20;strokeColor=default;strokeWidth=3;" edge="1" parent="1">
                    <mxGeometry width="50" height="50" relative="1" as="geometry">
                        <mxPoint x="1370" y="329.9999999999998" as="sourcePoint"/>
                        <mxPoint x="1430" y="329.9999999999998" as="targetPoint"/>
                    </mxGeometry>
                </mxCell>
                <mxCell id="120" value="" style="endArrow=none;html=1;fontFamily=Tahoma;fontSize=20;strokeColor=default;strokeWidth=3;" edge="1" parent="1">
                    <mxGeometry width="50" height="50" relative="1" as="geometry">
                        <mxPoint x="1370" y="369.9999999999998" as="sourcePoint"/>
                        <mxPoint x="1430" y="369.9999999999998" as="targetPoint"/>
                    </mxGeometry>
                </mxCell>
                <mxCell id="121" value="" style="endArrow=none;html=1;fontFamily=Tahoma;fontSize=20;strokeColor=default;strokeWidth=3;" edge="1" parent="1">
                    <mxGeometry width="50" height="50" relative="1" as="geometry">
                        <mxPoint x="1430" y="329.9999999999998" as="sourcePoint"/>
                        <mxPoint x="1450" y="369.9999999999998" as="targetPoint"/>
                    </mxGeometry>
                </mxCell>
                <mxCell id="122" value="" style="endArrow=none;html=1;fontFamily=Tahoma;fontSize=20;strokeColor=default;strokeWidth=3;" edge="1" parent="1">
                    <mxGeometry width="50" height="50" relative="1" as="geometry">
                        <mxPoint x="1450" y="329.9999999999998" as="sourcePoint"/>
                        <mxPoint x="1430" y="369.9999999999998" as="targetPoint"/>
                    </mxGeometry>
                </mxCell>
                <mxCell id="123" value="" style="endArrow=none;html=1;fontFamily=Tahoma;fontSize=20;strokeColor=default;strokeWidth=3;" edge="1" parent="1">
                    <mxGeometry width="50" height="50" relative="1" as="geometry">
                        <mxPoint x="1450" y="329.9999999999998" as="sourcePoint"/>
                        <mxPoint x="1510" y="329.9999999999998" as="targetPoint"/>
                    </mxGeometry>
                </mxCell>
                <mxCell id="124" value="" style="endArrow=none;html=1;fontFamily=Tahoma;fontSize=20;strokeColor=default;strokeWidth=3;" edge="1" parent="1">
                    <mxGeometry width="50" height="50" relative="1" as="geometry">
                        <mxPoint x="1450" y="369.9999999999998" as="sourcePoint"/>
                        <mxPoint x="1510" y="369.9999999999998" as="targetPoint"/>
                    </mxGeometry>
                </mxCell>
                <mxCell id="125" value="" style="endArrow=none;html=1;fontFamily=Tahoma;fontSize=20;strokeColor=default;strokeWidth=3;" edge="1" parent="1">
                    <mxGeometry width="50" height="50" relative="1" as="geometry">
                        <mxPoint x="1270" y="329.9999999999998" as="sourcePoint"/>
                        <mxPoint x="1290" y="369.9999999999998" as="targetPoint"/>
                    </mxGeometry>
                </mxCell>
                <mxCell id="126" value="" style="endArrow=none;html=1;fontFamily=Tahoma;fontSize=20;strokeColor=default;strokeWidth=3;" edge="1" parent="1">
                    <mxGeometry width="50" height="50" relative="1" as="geometry">
                        <mxPoint x="1290" y="329.9999999999998" as="sourcePoint"/>
                        <mxPoint x="1270" y="369.9999999999998" as="targetPoint"/>
                    </mxGeometry>
                </mxCell>
                <mxCell id="127" value="" style="endArrow=none;html=1;fontFamily=Tahoma;fontSize=20;strokeColor=default;strokeWidth=3;" edge="1" parent="1">
                    <mxGeometry width="50" height="50" relative="1" as="geometry">
                        <mxPoint x="1240" y="329.9999999999998" as="sourcePoint"/>
                        <mxPoint x="1270" y="329.9999999999998" as="targetPoint"/>
                    </mxGeometry>
                </mxCell>
                <mxCell id="128" value="" style="endArrow=none;html=1;fontFamily=Tahoma;fontSize=20;strokeColor=default;strokeWidth=3;" edge="1" parent="1">
                    <mxGeometry width="50" height="50" relative="1" as="geometry">
                        <mxPoint x="1240" y="369.9999999999998" as="sourcePoint"/>
                        <mxPoint x="1270" y="369.9999999999998" as="targetPoint"/>
                    </mxGeometry>
                </mxCell>
                <mxCell id="129" value="H0" style="text;html=1;strokeColor=none;fillColor=none;align=center;verticalAlign=middle;whiteSpace=wrap;rounded=0;dashed=1;dashPattern=1 1;sketch=1;fillStyle=auto;fontFamily=Tahoma;fontSize=20;" vertex="1" parent="1">
                    <mxGeometry x="1280" y="330" width="80" height="40" as="geometry"/>
                </mxCell>
                <mxCell id="130" value="H1" style="text;html=1;strokeColor=none;fillColor=none;align=center;verticalAlign=middle;whiteSpace=wrap;rounded=0;dashed=1;dashPattern=1 1;sketch=1;fillStyle=auto;fontFamily=Tahoma;fontSize=20;" vertex="1" parent="1">
                    <mxGeometry x="1360" y="330" width="80" height="40" as="geometry"/>
                </mxCell>
                <mxCell id="131" value="H2" style="text;html=1;strokeColor=none;fillColor=none;align=center;verticalAlign=middle;whiteSpace=wrap;rounded=0;dashed=1;dashPattern=1 1;sketch=1;fillStyle=auto;fontFamily=Tahoma;fontSize=20;" vertex="1" parent="1">
                    <mxGeometry x="1520" y="330" width="80" height="40" as="geometry"/>
                </mxCell>
                <mxCell id="132" value="" style="endArrow=none;html=1;fontFamily=Tahoma;fontSize=20;strokeColor=default;strokeWidth=3;" edge="1" parent="1">
                    <mxGeometry width="50" height="50" relative="1" as="geometry">
                        <mxPoint x="1510" y="329.9999999999998" as="sourcePoint"/>
                        <mxPoint x="1530" y="369.9999999999998" as="targetPoint"/>
                    </mxGeometry>
                </mxCell>
                <mxCell id="133" value="" style="endArrow=none;html=1;fontFamily=Tahoma;fontSize=20;strokeColor=default;strokeWidth=3;" edge="1" parent="1">
                    <mxGeometry width="50" height="50" relative="1" as="geometry">
                        <mxPoint x="1530" y="329.9999999999998" as="sourcePoint"/>
                        <mxPoint x="1510" y="369.9999999999998" as="targetPoint"/>
                    </mxGeometry>
                </mxCell>
                <mxCell id="134" value="" style="endArrow=none;html=1;fontFamily=Tahoma;fontSize=20;strokeColor=default;strokeWidth=3;" edge="1" parent="1">
                    <mxGeometry width="50" height="50" relative="1" as="geometry">
                        <mxPoint x="1530" y="329.9999999999998" as="sourcePoint"/>
                        <mxPoint x="1590" y="329.9999999999998" as="targetPoint"/>
                    </mxGeometry>
                </mxCell>
                <mxCell id="135" value="" style="endArrow=none;html=1;fontFamily=Tahoma;fontSize=20;strokeColor=default;strokeWidth=3;" edge="1" parent="1">
                    <mxGeometry width="50" height="50" relative="1" as="geometry">
                        <mxPoint x="1530" y="369.9999999999998" as="sourcePoint"/>
                        <mxPoint x="1590" y="369.9999999999998" as="targetPoint"/>
                    </mxGeometry>
                </mxCell>
                <mxCell id="136" value="" style="rounded=0;whiteSpace=wrap;html=1;strokeWidth=2;fillWeight=4;hachureGap=8;hachureAngle=45;fillColor=#000000;sketch=1;dashed=1;dashPattern=1 1;fillStyle=auto;fontFamily=Tahoma;fontSize=20;strokeColor=none;" vertex="1" parent="1">
                    <mxGeometry x="1450" y="330" width="60" height="40" as="geometry"/>
                </mxCell>
                <mxCell id="137" value="" style="endArrow=none;html=1;fontFamily=Tahoma;fontSize=20;strokeColor=default;strokeWidth=3;" edge="1" parent="1">
                    <mxGeometry width="50" height="50" relative="1" as="geometry">
                        <mxPoint x="1240" y="449.9999999999998" as="sourcePoint"/>
                        <mxPoint x="1280" y="449.9999999999998" as="targetPoint"/>
                    </mxGeometry>
                </mxCell>
                <mxCell id="138" value="" style="endArrow=none;html=1;fontFamily=Tahoma;fontSize=20;strokeColor=default;strokeWidth=3;" edge="1" parent="1">
                    <mxGeometry width="50" height="50" relative="1" as="geometry">
                        <mxPoint x="1280" y="449.9999999999998" as="sourcePoint"/>
                        <mxPoint x="1280" y="409.9999999999998" as="targetPoint"/>
                    </mxGeometry>
                </mxCell>
                <mxCell id="139" value="" style="endArrow=none;html=1;fontFamily=Tahoma;fontSize=20;strokeColor=default;strokeWidth=3;" edge="1" parent="1">
                    <mxGeometry width="50" height="50" relative="1" as="geometry">
                        <mxPoint x="1280" y="409.9999999999998" as="sourcePoint"/>
                        <mxPoint x="1440" y="409.9999999999998" as="targetPoint"/>
                    </mxGeometry>
                </mxCell>
                <mxCell id="140" value="" style="endArrow=none;html=1;fontFamily=Tahoma;fontSize=20;strokeColor=default;strokeWidth=3;" edge="1" parent="1">
                    <mxGeometry width="50" height="50" relative="1" as="geometry">
                        <mxPoint x="1439.17" y="449.9999999999998" as="sourcePoint"/>
                        <mxPoint x="1439.17" y="409.9999999999998" as="targetPoint"/>
                    </mxGeometry>
                </mxCell>
                <mxCell id="141" value="" style="endArrow=none;html=1;fontFamily=Tahoma;fontSize=20;strokeColor=default;strokeWidth=3;" edge="1" parent="1">
                    <mxGeometry width="50" height="50" relative="1" as="geometry">
                        <mxPoint x="1440" y="449.9999999999998" as="sourcePoint"/>
                        <mxPoint x="1520" y="449.9999999999998" as="targetPoint"/>
                    </mxGeometry>
                </mxCell>
                <mxCell id="142" value="" style="endArrow=none;html=1;fontFamily=Tahoma;fontSize=20;strokeColor=default;strokeWidth=3;" edge="1" parent="1">
                    <mxGeometry width="50" height="50" relative="1" as="geometry">
                        <mxPoint x="1520" y="449.9999999999998" as="sourcePoint"/>
                        <mxPoint x="1520" y="409.9999999999998" as="targetPoint"/>
                    </mxGeometry>
                </mxCell>
                <mxCell id="143" value="" style="endArrow=none;html=1;fontFamily=Tahoma;fontSize=20;strokeColor=default;strokeWidth=3;" edge="1" parent="1">
                    <mxGeometry width="50" height="50" relative="1" as="geometry">
                        <mxPoint x="1520" y="409.9999999999998" as="sourcePoint"/>
                        <mxPoint x="1600" y="409.9999999999998" as="targetPoint"/>
                    </mxGeometry>
                </mxCell>
                <mxCell id="144" value="&lt;font style=&quot;font-size: 20px&quot;&gt;out_hash&lt;/font&gt;" style="text;html=1;strokeColor=none;fillColor=none;align=left;verticalAlign=middle;whiteSpace=wrap;rounded=0;fontFamily=Tahoma;fontSize=12;" vertex="1" parent="1">
                    <mxGeometry x="760" y="330" width="80" height="40" as="geometry"/>
                </mxCell>
                <mxCell id="145" value="&lt;font style=&quot;font-size: 20px&quot;&gt;out_vld&lt;/font&gt;" style="text;html=1;strokeColor=none;fillColor=none;align=left;verticalAlign=middle;whiteSpace=wrap;rounded=0;fontFamily=Tahoma;fontSize=12;" vertex="1" parent="1">
                    <mxGeometry x="760" y="410" width="80" height="40" as="geometry"/>
                </mxCell>
                <mxCell id="148" value="" style="endArrow=none;html=1;rounded=0;fontFamily=Tahoma;fontSize=20;strokeColor=default;strokeWidth=3;" edge="1" parent="1">
                    <mxGeometry width="50" height="50" relative="1" as="geometry">
                        <mxPoint x="840" y="330" as="sourcePoint"/>
                        <mxPoint x="1200" y="330" as="targetPoint"/>
                    </mxGeometry>
                </mxCell>
                <mxCell id="149" value="" style="endArrow=none;html=1;rounded=0;fontFamily=Tahoma;fontSize=20;strokeColor=default;strokeWidth=3;" edge="1" parent="1">
                    <mxGeometry width="50" height="50" relative="1" as="geometry">
                        <mxPoint x="840" y="370" as="sourcePoint"/>
                        <mxPoint x="1200" y="370" as="targetPoint"/>
                    </mxGeometry>
                </mxCell>
                <mxCell id="150" value="" style="shape=waypoint;sketch=0;fillStyle=solid;size=6;pointerEvents=1;points=[];fillColor=#fad7ac;resizable=0;rotatable=0;perimeter=centerPerimeter;snapToPoint=1;fontFamily=Tahoma;fontSize=12;strokeWidth=1;strokeColor=default;" vertex="1" parent="1">
                    <mxGeometry x="1200" y="100" width="40" height="40" as="geometry"/>
                </mxCell>
                <mxCell id="151" value="" style="shape=waypoint;sketch=0;fillStyle=solid;size=6;pointerEvents=1;points=[];fillColor=#fad7ac;resizable=0;rotatable=0;perimeter=centerPerimeter;snapToPoint=1;fontFamily=Tahoma;fontSize=12;strokeWidth=1;strokeColor=default;" vertex="1" parent="1">
                    <mxGeometry x="1200" y="90" width="40" height="40" as="geometry"/>
                </mxCell>
                <mxCell id="152" value="" style="shape=waypoint;sketch=0;fillStyle=solid;size=6;pointerEvents=1;points=[];fillColor=#fad7ac;resizable=0;rotatable=0;perimeter=centerPerimeter;snapToPoint=1;fontFamily=Tahoma;fontSize=12;strokeWidth=1;strokeColor=default;" vertex="1" parent="1">
                    <mxGeometry x="1200" y="80" width="40" height="40" as="geometry"/>
                </mxCell>
                <mxCell id="153" value="" style="endArrow=none;html=1;rounded=0;fontFamily=Tahoma;fontSize=20;strokeColor=default;strokeWidth=3;" edge="1" parent="1">
                    <mxGeometry width="50" height="50" relative="1" as="geometry">
                        <mxPoint x="840" y="449" as="sourcePoint"/>
                        <mxPoint x="1200" y="449" as="targetPoint"/>
                    </mxGeometry>
                </mxCell>
                <mxCell id="155" value="" style="shape=waypoint;sketch=0;fillStyle=solid;size=6;pointerEvents=1;points=[];fillColor=#fad7ac;resizable=0;rotatable=0;perimeter=centerPerimeter;snapToPoint=1;fontFamily=Tahoma;fontSize=12;strokeWidth=1;strokeColor=default;" vertex="1" parent="1">
                    <mxGeometry x="1200" y="260" width="40" height="40" as="geometry"/>
                </mxCell>
                <mxCell id="156" value="" style="shape=waypoint;sketch=0;fillStyle=solid;size=6;pointerEvents=1;points=[];fillColor=#fad7ac;resizable=0;rotatable=0;perimeter=centerPerimeter;snapToPoint=1;fontFamily=Tahoma;fontSize=12;strokeWidth=1;strokeColor=default;" vertex="1" parent="1">
                    <mxGeometry x="1200" y="250" width="40" height="40" as="geometry"/>
                </mxCell>
                <mxCell id="157" value="" style="shape=waypoint;sketch=0;fillStyle=solid;size=6;pointerEvents=1;points=[];fillColor=#fad7ac;resizable=0;rotatable=0;perimeter=centerPerimeter;snapToPoint=1;fontFamily=Tahoma;fontSize=12;strokeWidth=1;strokeColor=default;" vertex="1" parent="1">
                    <mxGeometry x="1200" y="240" width="40" height="40" as="geometry"/>
                </mxCell>
                <mxCell id="158" value="" style="shape=waypoint;sketch=0;fillStyle=solid;size=6;pointerEvents=1;points=[];fillColor=#fad7ac;resizable=0;rotatable=0;perimeter=centerPerimeter;snapToPoint=1;fontFamily=Tahoma;fontSize=12;strokeWidth=1;strokeColor=default;" vertex="1" parent="1">
                    <mxGeometry x="1200" y="340" width="40" height="40" as="geometry"/>
                </mxCell>
                <mxCell id="159" value="" style="shape=waypoint;sketch=0;fillStyle=solid;size=6;pointerEvents=1;points=[];fillColor=#fad7ac;resizable=0;rotatable=0;perimeter=centerPerimeter;snapToPoint=1;fontFamily=Tahoma;fontSize=12;strokeWidth=1;strokeColor=default;" vertex="1" parent="1">
                    <mxGeometry x="1200" y="330" width="40" height="40" as="geometry"/>
                </mxCell>
                <mxCell id="160" value="" style="shape=waypoint;sketch=0;fillStyle=solid;size=6;pointerEvents=1;points=[];fillColor=#fad7ac;resizable=0;rotatable=0;perimeter=centerPerimeter;snapToPoint=1;fontFamily=Tahoma;fontSize=12;strokeWidth=1;strokeColor=default;" vertex="1" parent="1">
                    <mxGeometry x="1200" y="320" width="40" height="40" as="geometry"/>
                </mxCell>
                <mxCell id="161" value="" style="shape=waypoint;sketch=0;fillStyle=solid;size=6;pointerEvents=1;points=[];fillColor=#fad7ac;resizable=0;rotatable=0;perimeter=centerPerimeter;snapToPoint=1;fontFamily=Tahoma;fontSize=12;strokeWidth=1;strokeColor=default;" vertex="1" parent="1">
                    <mxGeometry x="1200" y="420" width="40" height="40" as="geometry"/>
                </mxCell>
                <mxCell id="162" value="" style="shape=waypoint;sketch=0;fillStyle=solid;size=6;pointerEvents=1;points=[];fillColor=#fad7ac;resizable=0;rotatable=0;perimeter=centerPerimeter;snapToPoint=1;fontFamily=Tahoma;fontSize=12;strokeWidth=1;strokeColor=default;" vertex="1" parent="1">
                    <mxGeometry x="1200" y="410" width="40" height="40" as="geometry"/>
                </mxCell>
                <mxCell id="163" value="" style="shape=waypoint;sketch=0;fillStyle=solid;size=6;pointerEvents=1;points=[];fillColor=#fad7ac;resizable=0;rotatable=0;perimeter=centerPerimeter;snapToPoint=1;fontFamily=Tahoma;fontSize=12;strokeWidth=1;strokeColor=default;" vertex="1" parent="1">
                    <mxGeometry x="1200" y="400" width="40" height="40" as="geometry"/>
                </mxCell>
                <mxCell id="164" value="" style="rounded=0;whiteSpace=wrap;html=1;strokeWidth=2;fillWeight=4;hachureGap=8;hachureAngle=45;fillColor=#000000;sketch=1;dashed=1;dashPattern=1 1;fillStyle=auto;fontFamily=Tahoma;fontSize=20;strokeColor=none;" vertex="1" parent="1">
                    <mxGeometry x="840" y="330" width="360" height="40" as="geometry"/>
                </mxCell>
                <mxCell id="165" value="" style="rounded=0;whiteSpace=wrap;html=1;strokeWidth=2;fillWeight=4;hachureGap=8;hachureAngle=45;fillColor=#000000;sketch=1;dashed=1;dashPattern=1 1;fillStyle=auto;fontFamily=Tahoma;fontSize=20;strokeColor=none;" vertex="1" parent="1">
                    <mxGeometry x="1240" y="330" width="30" height="40" as="geometry"/>
                </mxCell>
                <mxCell id="166" value="" style="endArrow=none;html=1;fontFamily=Tahoma;fontSize=20;strokeColor=default;strokeWidth=3;" edge="1" parent="1">
                    <mxGeometry width="50" height="50" relative="1" as="geometry">
                        <mxPoint x="1290" y="170" as="sourcePoint"/>
                        <mxPoint x="1350" y="170" as="targetPoint"/>
                    </mxGeometry>
                </mxCell>
                <mxCell id="167" value="" style="endArrow=none;html=1;fontFamily=Tahoma;fontSize=20;strokeColor=default;strokeWidth=3;" edge="1" parent="1">
                    <mxGeometry width="50" height="50" relative="1" as="geometry">
                        <mxPoint x="1290" y="210" as="sourcePoint"/>
                        <mxPoint x="1350" y="210" as="targetPoint"/>
                    </mxGeometry>
                </mxCell>
                <mxCell id="168" value="" style="endArrow=none;html=1;fontFamily=Tahoma;fontSize=20;strokeColor=default;strokeWidth=3;" edge="1" parent="1">
                    <mxGeometry width="50" height="50" relative="1" as="geometry">
                        <mxPoint x="1350" y="170" as="sourcePoint"/>
                        <mxPoint x="1370" y="210" as="targetPoint"/>
                    </mxGeometry>
                </mxCell>
                <mxCell id="169" value="" style="endArrow=none;html=1;fontFamily=Tahoma;fontSize=20;strokeColor=default;strokeWidth=3;" edge="1" parent="1">
                    <mxGeometry width="50" height="50" relative="1" as="geometry">
                        <mxPoint x="1370" y="170" as="sourcePoint"/>
                        <mxPoint x="1350" y="210" as="targetPoint"/>
                    </mxGeometry>
                </mxCell>
                <mxCell id="170" value="" style="endArrow=none;html=1;fontFamily=Tahoma;fontSize=20;strokeColor=default;strokeWidth=3;" edge="1" parent="1">
                    <mxGeometry width="50" height="50" relative="1" as="geometry">
                        <mxPoint x="1370" y="170" as="sourcePoint"/>
                        <mxPoint x="1430" y="170" as="targetPoint"/>
                    </mxGeometry>
                </mxCell>
                <mxCell id="171" value="" style="endArrow=none;html=1;fontFamily=Tahoma;fontSize=20;strokeColor=default;strokeWidth=3;" edge="1" parent="1">
                    <mxGeometry width="50" height="50" relative="1" as="geometry">
                        <mxPoint x="1370" y="210" as="sourcePoint"/>
                        <mxPoint x="1430" y="210" as="targetPoint"/>
                    </mxGeometry>
                </mxCell>
                <mxCell id="172" value="" style="endArrow=none;html=1;fontFamily=Tahoma;fontSize=20;strokeColor=default;strokeWidth=3;" edge="1" parent="1">
                    <mxGeometry width="50" height="50" relative="1" as="geometry">
                        <mxPoint x="1430" y="170" as="sourcePoint"/>
                        <mxPoint x="1450" y="210" as="targetPoint"/>
                    </mxGeometry>
                </mxCell>
                <mxCell id="173" value="" style="endArrow=none;html=1;fontFamily=Tahoma;fontSize=20;strokeColor=default;strokeWidth=3;" edge="1" parent="1">
                    <mxGeometry width="50" height="50" relative="1" as="geometry">
                        <mxPoint x="1450" y="170" as="sourcePoint"/>
                        <mxPoint x="1430" y="210" as="targetPoint"/>
                    </mxGeometry>
                </mxCell>
                <mxCell id="174" value="" style="endArrow=none;html=1;fontFamily=Tahoma;fontSize=20;strokeColor=default;strokeWidth=3;" edge="1" parent="1">
                    <mxGeometry width="50" height="50" relative="1" as="geometry">
                        <mxPoint x="1450" y="170" as="sourcePoint"/>
                        <mxPoint x="1510" y="170" as="targetPoint"/>
                    </mxGeometry>
                </mxCell>
                <mxCell id="175" value="" style="endArrow=none;html=1;fontFamily=Tahoma;fontSize=20;strokeColor=default;strokeWidth=3;" edge="1" parent="1">
                    <mxGeometry width="50" height="50" relative="1" as="geometry">
                        <mxPoint x="1450" y="210" as="sourcePoint"/>
                        <mxPoint x="1510" y="210" as="targetPoint"/>
                    </mxGeometry>
                </mxCell>
                <mxCell id="176" value="" style="endArrow=none;html=1;fontFamily=Tahoma;fontSize=20;strokeColor=default;strokeWidth=3;" edge="1" parent="1">
                    <mxGeometry width="50" height="50" relative="1" as="geometry">
                        <mxPoint x="1270" y="170" as="sourcePoint"/>
                        <mxPoint x="1290" y="210" as="targetPoint"/>
                    </mxGeometry>
                </mxCell>
                <mxCell id="177" value="" style="endArrow=none;html=1;fontFamily=Tahoma;fontSize=20;strokeColor=default;strokeWidth=3;" edge="1" parent="1">
                    <mxGeometry width="50" height="50" relative="1" as="geometry">
                        <mxPoint x="1290" y="170" as="sourcePoint"/>
                        <mxPoint x="1270" y="210" as="targetPoint"/>
                    </mxGeometry>
                </mxCell>
                <mxCell id="178" value="" style="endArrow=none;html=1;fontFamily=Tahoma;fontSize=20;strokeColor=default;strokeWidth=3;" edge="1" parent="1">
                    <mxGeometry width="50" height="50" relative="1" as="geometry">
                        <mxPoint x="1240" y="170" as="sourcePoint"/>
                        <mxPoint x="1270" y="170" as="targetPoint"/>
                    </mxGeometry>
                </mxCell>
                <mxCell id="179" value="" style="endArrow=none;html=1;fontFamily=Tahoma;fontSize=20;strokeColor=default;strokeWidth=3;" edge="1" parent="1">
                    <mxGeometry width="50" height="50" relative="1" as="geometry">
                        <mxPoint x="1240" y="210" as="sourcePoint"/>
                        <mxPoint x="1270" y="210" as="targetPoint"/>
                    </mxGeometry>
                </mxCell>
                <mxCell id="180" value="I{n}" style="text;html=1;strokeColor=none;fillColor=none;align=center;verticalAlign=middle;whiteSpace=wrap;rounded=0;dashed=1;dashPattern=1 1;sketch=1;fillStyle=auto;fontFamily=Tahoma;fontSize=20;" vertex="1" parent="1">
                    <mxGeometry x="1280" y="170" width="80" height="40" as="geometry"/>
                </mxCell>
                <mxCell id="181" value="I{n+1}" style="text;html=1;strokeColor=none;fillColor=none;align=center;verticalAlign=middle;whiteSpace=wrap;rounded=0;dashed=1;dashPattern=1 1;sketch=1;fillStyle=auto;fontFamily=Tahoma;fontSize=20;" vertex="1" parent="1">
                    <mxGeometry x="1360" y="170" width="80" height="40" as="geometry"/>
                </mxCell>
                <mxCell id="182" value="I{n+3}" style="text;html=1;strokeColor=none;fillColor=none;align=center;verticalAlign=middle;whiteSpace=wrap;rounded=0;dashed=1;dashPattern=1 1;sketch=1;fillStyle=auto;fontFamily=Tahoma;fontSize=20;" vertex="1" parent="1">
                    <mxGeometry x="1520" y="170" width="80" height="40" as="geometry"/>
                </mxCell>
                <mxCell id="183" value="" style="endArrow=none;html=1;fontFamily=Tahoma;fontSize=20;strokeColor=default;strokeWidth=3;" edge="1" parent="1">
                    <mxGeometry width="50" height="50" relative="1" as="geometry">
                        <mxPoint x="1510" y="170" as="sourcePoint"/>
                        <mxPoint x="1530" y="210" as="targetPoint"/>
                    </mxGeometry>
                </mxCell>
                <mxCell id="184" value="" style="endArrow=none;html=1;fontFamily=Tahoma;fontSize=20;strokeColor=default;strokeWidth=3;" edge="1" parent="1">
                    <mxGeometry width="50" height="50" relative="1" as="geometry">
                        <mxPoint x="1530" y="170" as="sourcePoint"/>
                        <mxPoint x="1510" y="210" as="targetPoint"/>
                    </mxGeometry>
                </mxCell>
                <mxCell id="185" value="" style="endArrow=none;html=1;fontFamily=Tahoma;fontSize=20;strokeColor=default;strokeWidth=3;" edge="1" parent="1">
                    <mxGeometry width="50" height="50" relative="1" as="geometry">
                        <mxPoint x="1530" y="170" as="sourcePoint"/>
                        <mxPoint x="1590" y="170" as="targetPoint"/>
                    </mxGeometry>
                </mxCell>
                <mxCell id="186" value="" style="endArrow=none;html=1;fontFamily=Tahoma;fontSize=20;strokeColor=default;strokeWidth=3;" edge="1" parent="1">
                    <mxGeometry width="50" height="50" relative="1" as="geometry">
                        <mxPoint x="1530" y="210" as="sourcePoint"/>
                        <mxPoint x="1590" y="210" as="targetPoint"/>
                    </mxGeometry>
                </mxCell>
                <mxCell id="188" value="I{n+2}" style="text;html=1;strokeColor=none;fillColor=none;align=center;verticalAlign=middle;whiteSpace=wrap;rounded=0;dashed=1;dashPattern=1 1;sketch=1;fillStyle=auto;fontFamily=Tahoma;fontSize=20;" vertex="1" parent="1">
                    <mxGeometry x="1440" y="170" width="80" height="40" as="geometry"/>
                </mxCell>
                <mxCell id="189" value="" style="endArrow=none;html=1;fontFamily=Tahoma;fontSize=20;strokeColor=default;strokeWidth=3;" edge="1" parent="1">
                    <mxGeometry width="50" height="50" relative="1" as="geometry">
                        <mxPoint x="1240" y="250" as="sourcePoint"/>
                        <mxPoint x="1600" y="250" as="targetPoint"/>
                    </mxGeometry>
                </mxCell>
            </root>
        </mxGraphModel>
    </diagram>
</mxfile>